<svg width="50" height="50" viewBox="0 0 50 50" fill="none" xmlns="http://www.w3.org/2000/svg">
<path d="M43.4141 15.4193C44.2266 14.6068 44.2266 13.2943 43.4141 12.4818L37.5182 6.58594C36.7057 5.77344 35.3932 5.77344 34.5807 6.58594L25.2266 15.9401L17.1224 7.83594C15.4974 6.21094 12.8516 6.21094 11.2266 7.83594L7.26823 11.7943C5.64323 13.4193 5.64323 16.0651 7.26823 17.6901L15.3724 25.7943L5.97656 35.1901V44.0234H14.8099L24.2266 34.6068L32.3307 42.7109C34.3099 44.6901 36.9766 43.9609 38.2266 42.7109L42.1849 38.7526C43.8099 37.1276 43.8099 34.4818 42.1849 32.8568L34.0807 24.7526L43.4141 15.4193ZM10.2266 14.7318L14.1641 10.7734L16.8099 13.4193L14.3516 15.8984L17.2891 18.8359L19.7682 16.3568L22.2682 18.8568L18.3099 22.8151L10.2266 14.7318ZM33.6224 30.2318L31.1432 32.7109L34.0807 35.6484L36.5599 33.1693L39.2057 35.8151L35.2474 39.7734L27.1432 31.6693L31.1016 27.7109L33.6224 30.2318ZM13.0807 39.8568H10.1432V36.9193L30.1641 16.8984L33.1016 19.8359L13.0807 39.8568ZM33.1016 13.9401L36.0391 11.0026L38.9766 13.9401L36.0391 16.8776L33.1016 13.9401Z" fill="white"/>
</svg>
