<svg width="50" height="50" viewBox="0 0 50 50" fill="none" xmlns="http://www.w3.org/2000/svg">
<path d="M33.3333 2.08325H16.6666C13.7916 2.08325 11.4583 4.41659 11.4583 7.29159V42.7083C11.4583 45.5833 13.7916 47.9166 16.6666 47.9166H33.3333C36.2083 47.9166 38.5416 45.5833 38.5416 42.7083V7.29159C38.5416 4.41659 36.2083 2.08325 33.3333 2.08325ZM24.9999 45.8333C23.2708 45.8333 21.8749 44.4374 21.8749 42.7083C21.8749 40.9791 23.2708 39.5833 24.9999 39.5833C26.7291 39.5833 28.1249 40.9791 28.1249 42.7083C28.1249 44.4374 26.7291 45.8333 24.9999 45.8333ZM34.3749 37.4999H15.6249V8.33325H34.3749V37.4999Z" fill="white"/>
</svg>
